<svg class="vector-30" width="1172" height="629" viewBox="0 0 1172 629" fill="none" xmlns="http://www.w3.org/2000/svg">
  	<path d="M1101.19 438.896C1150.51 447.535 1164.33 418.162 1172 397.429V88.1486C1172 19.0358 1102.92 1.75768 1068.37 1.75772C771.314 1.18178 158.54 0.375466 83.9301 1.75772C9.32 3.13998 -2.42451 78.3577 1.0295 115.794C0.453798 231.558 -0.35218 479.327 1.0295 544.293C2.41117 609.259 56.8723 627.805 83.9301 628.956H942.297C969.168 623.773 989.964 609.95 980.292 561.571C974.766 533.926 986.247 495.914 1003.71 473.452C1025.2 445.807 1060.34 431.741 1101.19 438.896Z" fill="#A3F3EB"/>
</svg>